<?xml version="1.0" encoding="UTF-8" standalone="no"?>
<!-- Created with Inkscape (http://www.inkscape.org/) -->

<svg
   width="210mm"
   height="297mm"
   viewBox="0 0 210 297"
   version="1.1"
   id="svg1"
   xml:space="preserve"
   inkscape:version="1.3.2 (1:1.3.2+202311252150+091e20ef0f)"
   sodipodi:docname="crank_spider_holes.svg"
   xmlns:inkscape="http://www.inkscape.org/namespaces/inkscape"
   xmlns:sodipodi="http://sodipodi.sourceforge.net/DTD/sodipodi-0.dtd"
   xmlns="http://www.w3.org/2000/svg"
   xmlns:svg="http://www.w3.org/2000/svg"><sodipodi:namedview
     id="namedview1"
     pagecolor="#ffffff"
     bordercolor="#000000"
     borderopacity="0.25"
     inkscape:showpageshadow="2"
     inkscape:pageopacity="0.0"
     inkscape:pagecheckerboard="0"
     inkscape:deskcolor="#d1d1d1"
     inkscape:document-units="mm"
     inkscape:zoom="1.2113519"
     inkscape:cx="-164.27927"
     inkscape:cy="923.34854"
     inkscape:window-width="3840"
     inkscape:window-height="2123"
     inkscape:window-x="0"
     inkscape:window-y="0"
     inkscape:window-maximized="1"
     inkscape:current-layer="layer1" /><defs
     id="defs1" /><g
     inkscape:label="Layer 1"
     inkscape:groupmode="layer"
     id="layer1"><path
       style="fill:#0000f1;fill-opacity:0.452432;stroke:#ff0000;stroke-width:0.1"
       d="m -41.132988,224.95383 c -0.171942,0.097 -2.791494,3.19797 -2.791494,3.19797 l -2.535844,5.16747 -0.497274,7.96317 1.373423,7.82895 1.256988,4.41001 2.076125,4.21605 4.148478,3.18741 7.671178,4.49372 6.232447,2.93765 5.20004,1.72424 4.983453,0.61447 3.518478,-0.30407 5.1748513,-2.18487 5.20411229,-5.12734 3.05513841,-4.56008 3.7501457,-8.1668 3.6248093,-9.10252 -0.31025,-4.84273 -2.4853153,-5.76096 -4.6410778,-8.53089 -4.1391274,-4.38196 -4.7623417,-2.39633 -5.7958048,-0.55745 -7.536792,0.75337 c 0,0 -6.757624,1.87855 -7.036803,1.87855 -0.27918,0 -5.964126,2.23042 -5.964126,2.23042 0,0 -4.918599,2.7568 -5.206376,2.83417 -0.287777,0.0774 -3.567041,2.47838 -3.567041,2.47838 z"
       id="path6"
       inkscape:transform-center-x="18.507702"
       inkscape:transform-center-y="-54.36749" /><path
       style="fill:#0000f1;fill-opacity:0.452432;stroke:#ff0000;stroke-width:0.1"
       d="m 56.036289,235.51299 c -0.145367,-0.13356 -3.904071,-1.66664 -3.904071,-1.66664 l -5.698167,-0.8149 -7.727099,1.98782 -7.021355,3.72548 -3.80574,2.55823 -3.368142,3.27735 -1.74946,4.9304 -1.903258,8.68436 -0.867935,6.83519 -0.03296,5.47835 0.955579,4.92943 1.376454,3.25231 3.677051,4.24641 6.484552,3.36497 5.280986,1.49647 8.925942,1.04292 9.777141,0.63457 4.509838,-1.79156 4.710997,-4.14391 6.679186,-7.05011 2.888428,-5.29065 0.8074,-5.26976 -1.260832,-5.6844 -3.045501,-6.93511 c 0,0 -3.874821,-5.84638 -3.961092,-6.11189 -0.08627,-0.26552 -3.964271,-4.98299 -3.964271,-4.98299 0,0 -4.141807,-3.82596 -4.304322,-4.07575 -0.162512,-0.24978 -3.459354,-2.62659 -3.459354,-2.62659 z"
       id="path8"
       inkscape:transform-center-x="-47.809944"
       inkscape:transform-center-y="-35.85085" /><path
       style="fill:#0000f1;fill-opacity:0.452432;stroke:#ff0000;stroke-width:0.1"
       d="m 76.020893,331.18942 c 0.0821,-0.17953 0.378645,-4.22801 0.378645,-4.22801 l -0.985816,-5.6711 -4.278336,-6.73464 -5.712859,-5.52646 -3.609064,-2.82894 -4.157752,-2.19054 -5.229704,-0.14026 -8.847456,0.87351 -6.768861,1.28674 -5.220408,1.66155 -4.392873,2.43209 -2.667781,2.3141 -2.902309,4.8093 -1.196439,7.20701 0.20869,5.48495 1.76639,8.81135 2.417795,9.49471 3.097484,3.73549 5.396872,3.19989 8.769041,4.17367 5.924275,1.11216 5.261342,-0.86056 5.016567,-2.9557 5.654569,-5.03951 c 0,0 4.362853,-5.4918 4.588714,-5.6559 0.225862,-0.1641 3.514071,-5.31007 3.514071,-5.31007 0,0 2.358821,-5.12138 2.546159,-5.35313 0.187339,-0.23175 1.429042,-4.10171 1.429042,-4.10171 z"
       id="path9"
       inkscape:transform-center-x="-48.229774"
       inkscape:transform-center-y="35.063305" /><path
       style="fill:#0000f1;fill-opacity:0.452432;stroke:#ff0000;stroke-width:0.1"
       d="m -8.7972201,379.76155 c 0.1961134,0.0226 4.1380842,-0.94641 4.1380842,-0.94641 l 5.08890269,-2.69004 5.08294471,-6.15005 3.4906108,-7.14103 1.5752157,-4.30661 0.79851,-4.63117 -1.4826747,-5.01709 -3.5647706,-8.1445 -3.3154505,-6.03995 -3.19342941,-4.45145 -3.67052359,-3.42631 -3.0252306,-1.82212 -5.4707796,-1.2741 -7.223994,1.0892 -5.152008,1.89342 -7.834248,4.4028 -8.282866,5.23348 -2.595487,4.10022 -1.375551,6.12155 -1.259613,9.62959 0.772974,5.97799 2.444286,4.73791 4.361242,3.85768 6.540217,3.82052 c 0,0 6.571208,2.45226 6.797071,2.61635 0.225863,0.1641 6.136084,1.70118 6.136084,1.70118 0,0 5.599638,0.66078 5.877936,0.76733 0.278298,0.10656 4.3425567,0.0916 4.3425567,0.0916 z"
       id="path10"
       inkscape:transform-center-x="17.5312"
       inkscape:transform-center-y="54.637063" /><path
       style="fill:#0000f1;fill-opacity:0.452432;stroke:#ff0000;stroke-width:0.1"
       d="m -81.2023,314.10434 c 0.03911,0.1935 2.178828,3.6431 2.178828,3.6431 l 4.130938,4.00857 7.419761,2.93369 7.870181,1.11307 4.582598,0.16731 4.651258,-0.67169 4.313364,-2.96047 6.644305,-5.90709 4.719803,-5.01962 3.246757,-4.41271 2.12436,-4.54966 0.798092,-3.44023 -0.478823,-5.59674 -3.268228,-6.53385 -3.392807,-4.31475 -6.608227,-6.09027 -7.536882,-6.26024 -4.701591,-1.20142 -6.247008,0.58344 -9.547526,1.77774 -5.446545,2.58244 -3.750694,3.78875 -2.321174,5.33988 -1.612492,7.40072 c 0,0 -0.301623,7.00738 -0.387886,7.2729 -0.08627,0.26551 0.278236,6.36145 0.278236,6.36145 0,0 1.101944,5.52977 1.086608,5.82737 -0.01535,0.29761 1.254807,4.15832 1.254807,4.15832 z"
       id="path11"
       inkscape:transform-center-x="56.363537"
       inkscape:transform-center-y="0.38628351" /></g></svg>
