<?xml version="1.0" encoding="UTF-8" standalone="no"?>
<!-- Created with Inkscape (http://www.inkscape.org/) -->

<svg
   width="199.97472mm"
   height="266.86337mm"
   viewBox="0 0 199.97472 266.86337"
   version="1.1"
   id="svg1"
   xmlns="http://www.w3.org/2000/svg"
   xmlns:svg="http://www.w3.org/2000/svg">
  <defs
     id="defs1" />
  <g
     id="layer1"
     transform="translate(-285.09289,-79.590648)">
    <circle
       style="fill:#1a1a1a;stroke:#000000;stroke-width:0.140236"
       id="circle233"
       cx="-323.97229"
       cy="168.36427"
       r="2.429882"
       transform="scale(-1,1)" />
    <circle
       style="fill:#1a1a1a;stroke:#000000;stroke-width:0.140236"
       id="circle234"
       cx="-473.27414"
       cy="114.10245"
       r="2.429882"
       transform="scale(-1,1)" />
    <circle
       style="fill:#1a1a1a;stroke:#000000;stroke-width:0.140236"
       id="circle235"
       cx="-398.62326"
       cy="141.23335"
       r="2.429882"
       transform="scale(-1,1)" />
    <circle
       style="fill:#1a1a1a;stroke:#000000;stroke-width:0.140236"
       id="circle236"
       cx="-295.32404"
       cy="89.615273"
       r="2.429882"
       transform="scale(-1,1)" />
    <circle
       style="fill:#1a1a1a;stroke:#000000;stroke-width:0.140236"
       id="circle237"
       cx="-295.32404"
       cy="190.78561"
       r="2.429882"
       transform="scale(-1,1)" />
    <circle
       style="fill:#1a1a1a;stroke:#000000;stroke-width:0.140236"
       id="circle238"
       cx="-295.32404"
       cy="336.4892"
       r="2.429882"
       transform="scale(-1,1)" />
    <circle
       style="fill:#1a1a1a;stroke:#000000;stroke-width:0.140236"
       id="circle239"
       cx="-349.29868"
       cy="336.4892"
       r="2.429882"
       transform="scale(-1,1)" />
    <g
       id="g248">
      <path
         d="m 295.32372,225.39028 c -1.38038,2.3e-4 -2.49936,1.11921 -2.49958,2.49959 v 25.4 c -6e-5,1.38059 1.11899,2.49988 2.49958,2.50011 1.3808,6e-5 2.50017,-1.11931 2.50011,-2.50011 v -25.4 c -2.3e-4,-1.38058 -1.11952,-2.49964 -2.50011,-2.49959 z"
         style="fill:#00ffff;fill-opacity:1;stroke:#000000;stroke-width:0.1;stroke-dasharray:none;stroke-opacity:1"
         id="path240" />
      <path
         d="m 295.32373,275.39029 c -1.38039,2.3e-4 -2.49937,1.11921 -2.49959,2.49959 v 25.4 c -6e-5,1.38059 1.119,2.49988 2.49959,2.50011 1.38079,6e-5 2.50016,-1.11931 2.5001,-2.50011 v -25.4 c -2.2e-4,-1.38058 -1.11952,-2.49964 -2.5001,-2.49959 z"
         style="fill:#00ffff;fill-opacity:1;stroke:#000000;stroke-width:0.1;stroke-dasharray:none;stroke-opacity:1"
         id="path243" />
    </g>
    <circle
       style="fill:#1a1a1a;stroke:#000000;stroke-width:0.140236"
       id="circle243"
       cx="-349.29868"
       cy="190.78561"
       r="2.429882"
       transform="scale(-1,1)" />
    <circle
       style="fill:#1a1a1a;stroke:#000000;stroke-width:0.140236"
       id="circle244"
       cx="-295.32404"
       cy="140.20044"
       r="2.429882"
       transform="scale(-1,1)" />
    <path
       d="m 295.14303,79.640873 c -5.52271,5e-5 -9.99985,4.477184 -9.9999,9.999906 V 336.40401 c 6.2e-4,5.52049 4.47475,9.99624 9.99525,9.99887 l 0.009,-8e-5 58.01454,10e-4 h 0.58291 c 3.6691,-0.13886 6.96339,-2.28751 8.56951,-5.58932 l 0.35913,-0.64234 120.6748,-215.70569 0.99375,-1.77715 c 0.42181,-1.08354 0.65041,-2.23265 0.6754,-3.39514 -3.3e-4,-0.51794 -0.0411,-1.03508 -0.12196,-1.54667 l -1.25367,-3.44527 -0.8816,-2.42208 -0.85317,-2.34559 c -1.72481,-3.29088 -5.13255,-5.35421 -8.84804,-5.35781 -1.11369,0.033 -2.21407,0.2518 -3.25562,0.6475 l -0.87767,0.31888 -136.45729,49.53762 -27.46189,-75.039867 z"
       style="fill:none;fill-opacity:0.346834;stroke:#000000;stroke-width:0.100441"
       id="path244" />
    <g
       id="g250"
       transform="translate(53.97458)">
      <path
         d="m 295.32372,225.39028 c -1.38038,2.3e-4 -2.49936,1.11921 -2.49958,2.49959 v 25.4 c -6e-5,1.38059 1.11899,2.49988 2.49958,2.50011 1.3808,6e-5 2.50017,-1.11931 2.50011,-2.50011 v -25.4 c -2.3e-4,-1.38058 -1.11952,-2.49964 -2.50011,-2.49959 z"
         style="fill:#00ffff;fill-opacity:1;stroke:#000000;stroke-width:0.1;stroke-dasharray:none;stroke-opacity:1"
         id="path249" />
      <path
         d="m 295.32373,275.39029 c -1.38039,2.3e-4 -2.49937,1.11921 -2.49959,2.49959 v 25.4 c -6e-5,1.38059 1.119,2.49988 2.49959,2.50011 1.38079,6e-5 2.50016,-1.11931 2.5001,-2.50011 v -25.4 c -2.2e-4,-1.38058 -1.11952,-2.49964 -2.5001,-2.49959 z"
         style="fill:#00ffff;fill-opacity:1;stroke:#000000;stroke-width:0.1;stroke-dasharray:none;stroke-opacity:1"
         id="path250" />
    </g>
  </g>
</svg>
