<?xml version="1.0" encoding="UTF-8" standalone="no"?>
<!-- Created with Inkscape (http://www.inkscape.org/) -->

<svg
   width="199.97475mm"
   height="266.86346mm"
   viewBox="0 0 199.97475 266.86346"
   version="1.1"
   id="svg1"
   xmlns="http://www.w3.org/2000/svg"
   xmlns:svg="http://www.w3.org/2000/svg">
  <defs
     id="defs1" />
  <g
     id="layer1"
     transform="translate(-628.04726,12.237818)">
    <circle
       style="fill:#1a1a1a;stroke:#000000;stroke-width:0.140236"
       id="circle175"
       cx="-666.92664"
       cy="76.535805"
       r="2.429882"
       transform="scale(-1,1)" />
    <circle
       style="fill:#1a1a1a;stroke:#000000;stroke-width:0.140236"
       id="circle176"
       cx="-816.22845"
       cy="22.273973"
       r="2.429882"
       transform="scale(-1,1)" />
    <circle
       style="fill:#1a1a1a;stroke:#000000;stroke-width:0.140236"
       id="circle177"
       cx="-741.57758"
       cy="49.404892"
       r="2.429882"
       transform="scale(-1,1)" />
    <circle
       style="fill:#1a1a1a;stroke:#000000;stroke-width:0.140236"
       id="circle178"
       cx="-638.27838"
       cy="-2.2132008"
       r="2.429882"
       transform="scale(-1,1)" />
    <circle
       style="fill:#1a1a1a;stroke:#000000;stroke-width:0.140236"
       id="circle179"
       cx="-638.27838"
       cy="98.957153"
       r="2.429882"
       transform="scale(-1,1)" />
    <circle
       style="fill:#1a1a1a;stroke:#000000;stroke-width:0.140236"
       id="circle180"
       cx="-638.27838"
       cy="244.66072"
       r="2.429882"
       transform="scale(-1,1)" />
    <circle
       style="fill:#1a1a1a;stroke:#000000;stroke-width:0.140236"
       id="circle181"
       cx="-692.25299"
       cy="244.66072"
       r="2.429882"
       transform="scale(-1,1)" />
    <g
       id="g184"
       transform="translate(439.98284,2.4540029)">
      <path
         d="m 198.29557,143.57746 c -1.34193,3e-5 -2.42979,1.08789 -2.42983,2.42983 0.001,0.0102 0.002,0.0203 0.004,0.0305 -7.5e-4,0.003 -0.004,0.005 -0.004,0.008 v 12.623 c 0,0.003 0.003,0.005 0.004,0.008 -0.001,0.01 -0.002,0.02 -0.004,0.03 4e-5,1.34194 1.08789,2.42979 2.42983,2.42983 1.34194,-4e-5 2.42979,-1.08789 2.42983,-2.42983 -4.4e-4,-0.0117 -9.5e-4,-0.0234 -0.002,-0.0351 1.1e-4,-0.001 0.002,-0.002 0.002,-0.003 v -12.62308 c 0,-0.004 -0.003,-0.006 -0.004,-0.009 0.001,-0.01 0.002,-0.02 0.004,-0.03 -4e-5,-1.34193 -1.0879,-2.42978 -2.42983,-2.42982 z"
         style="fill:#00ffff;stroke:#000000;stroke-width:0.140236"
         id="path181" />
      <path
         d="m 198.29557,193.57748 c -1.34193,2e-5 -2.42979,1.08788 -2.42983,2.42982 0.001,0.0102 0.002,0.0203 0.004,0.0305 -7.5e-4,0.003 -0.004,0.005 -0.004,0.008 v 12.623 c 0,0.003 0.003,0.005 0.004,0.008 -0.001,0.01 -0.002,0.02 -0.004,0.03 4e-5,1.34195 1.08789,2.4298 2.42983,2.42982 1.34194,-2e-5 2.42979,-1.08787 2.42983,-2.42982 -4.4e-4,-0.0117 -9.5e-4,-0.0234 -0.002,-0.0351 1.1e-4,-9.9e-4 0.002,-0.002 0.002,-0.003 v -12.62307 c 0,-0.004 -0.003,-0.006 -0.004,-0.009 0.001,-0.01 0.002,-0.02 0.004,-0.03 -4e-5,-1.34193 -1.0879,-2.42979 -2.42983,-2.42982 z"
         style="fill:#00ffff;stroke:#000000;stroke-width:0.140236"
         id="path182" />
      <path
         d="m 252.27015,130.57747 c -1.34193,3e-5 -2.42979,1.08789 -2.42983,2.42983 0.001,0.0102 0.002,0.0203 0.004,0.0305 -7.5e-4,0.003 -0.004,0.005 -0.004,0.008 v 12.623 c 0,0.003 0.003,0.005 0.004,0.008 -0.001,0.01 -0.002,0.02 -0.004,0.03 4e-5,1.34194 1.08789,2.42979 2.42983,2.42982 1.34194,-3e-5 2.42979,-1.08788 2.42983,-2.42982 -4.4e-4,-0.0117 -9.5e-4,-0.0234 -0.002,-0.0351 1.1e-4,-10e-4 0.002,-0.002 0.002,-0.003 v -12.62307 c 0,-0.004 -0.003,-0.006 -0.004,-0.009 0.001,-0.01 0.002,-0.02 0.004,-0.03 -4e-5,-1.34193 -1.0879,-2.42979 -2.42983,-2.42982 z"
         style="fill:#00ffff;stroke:#000000;stroke-width:0.140236"
         id="path183" />
      <path
         d="m 252.27015,212.57747 c -1.34193,3e-5 -2.42979,1.08789 -2.42983,2.42983 0.001,0.0102 0.002,0.0203 0.004,0.0305 -7.5e-4,0.003 -0.004,0.005 -0.004,0.008 v 12.623 c 0,0.003 0.003,0.005 0.004,0.008 -0.001,0.01 -0.002,0.02 -0.004,0.03 4e-5,1.34194 1.08789,2.42979 2.42983,2.42982 1.34194,-3e-5 2.42979,-1.08788 2.42983,-2.42982 -4.4e-4,-0.0117 -9.5e-4,-0.0234 -0.002,-0.0351 1.1e-4,-10e-4 0.002,-0.002 0.002,-0.003 v -12.62307 c 0,-0.004 -0.003,-0.006 -0.004,-0.009 0.001,-0.01 0.002,-0.02 0.004,-0.03 -4e-5,-1.34193 -1.0879,-2.42979 -2.42983,-2.42982 z"
         style="fill:#00ffff;stroke:#000000;stroke-width:0.140236"
         id="path184" />
    </g>
    <circle
       style="fill:#1a1a1a;stroke:#000000;stroke-width:0.140236"
       id="circle185"
       cx="-692.25299"
       cy="98.957153"
       r="2.429882"
       transform="scale(-1,1)" />
    <circle
       style="fill:#1a1a1a;stroke:#000000;stroke-width:0.140236"
       id="circle186"
       cx="-638.27838"
       cy="48.371975"
       r="2.429882"
       transform="scale(-1,1)" />
    <path
       d="m 638.09736,-12.187598 c -5.52271,5e-5 -9.99985,4.4771839 -9.9999,9.9999062 V 244.57554 c 6.2e-4,5.5205 4.47475,9.99625 9.99525,9.99887 h 0.009 l 58.01454,0.001 h 0.58291 c 3.6691,-0.13886 6.96339,-2.28751 8.56951,-5.58932 l 0.35915,-0.64234 120.6748,-215.70569 0.99374,-1.777153 c 0.42182,-1.08354 0.65042,-2.232657 0.67541,-3.395141 -3.3e-4,-0.517946 -0.0411,-1.03508 -0.12196,-1.546676 l -1.25367,-3.445268 -0.8816,-2.422074 -0.85317,-2.345593 c -1.72481,-3.290884 -5.13255,-5.354213 -8.84804,-5.357813 -1.11369,0.033 -2.21407,0.251808 -3.25562,0.647506 l -0.87767,0.318873 -136.45731,49.537545 -27.46189,-75.039864 z"
       style="fill:none;fill-opacity:0.346834;stroke:#000000;stroke-width:0.100441"
       id="path193" />
  </g>
</svg>
