<?xml version="1.0" encoding="UTF-8" standalone="no"?>
<!-- Created with Inkscape (http://www.inkscape.org/) -->

<svg
   width="263.1972mm"
   height="271.90237mm"
   viewBox="0 0 263.1972 271.90237"
   version="1.1"
   id="svg1"
   xmlns="http://www.w3.org/2000/svg"
   xmlns:svg="http://www.w3.org/2000/svg">
  <defs
     id="defs1" />
  <g
     id="layer1"
     transform="translate(-354.04405,11.325977)">
    <g
       id="g248"
       transform="rotate(20,490.80875,145.42779)">
      <circle
         style="fill:#1a1a1a;stroke:#000000;stroke-width:0.140236"
         id="circle233"
         cx="-429.70078"
         cy="100.76972"
         r="2.429882"
         transform="scale(-1,1)" />
      <circle
         style="fill:#1a1a1a;stroke:#000000;stroke-width:0.140236"
         id="circle234"
         cx="-579.00262"
         cy="46.507896"
         r="2.429882"
         transform="scale(-1,1)" />
      <circle
         style="fill:#1a1a1a;stroke:#000000;stroke-width:0.140236"
         id="circle235"
         cx="-504.35175"
         cy="73.638809"
         r="2.429882"
         transform="scale(-1,1)" />
      <circle
         style="fill:#1a1a1a;stroke:#000000;stroke-width:0.140236"
         id="circle236"
         cx="-401.05252"
         cy="22.020721"
         r="2.429882"
         transform="scale(-1,1)" />
      <circle
         style="fill:#1a1a1a;stroke:#000000;stroke-width:0.140236"
         id="circle237"
         cx="-401.05252"
         cy="123.19107"
         r="2.429882"
         transform="scale(-1,1)" />
      <circle
         style="fill:#1a1a1a;stroke:#000000;stroke-width:0.140236"
         id="circle238"
         cx="-401.05252"
         cy="268.89465"
         r="2.429882"
         transform="scale(-1,1)" />
      <circle
         style="fill:#1a1a1a;stroke:#000000;stroke-width:0.140236"
         id="circle239"
         cx="-455.02716"
         cy="268.89465"
         r="2.429882"
         transform="scale(-1,1)" />
      <path
         d="m 401.0522,157.79573 c -1.38038,2.3e-4 -2.49936,1.11921 -2.49958,2.49959 v 25.4 c -6e-5,1.38059 1.11899,2.49988 2.49958,2.50011 1.3808,6e-5 2.50017,-1.11931 2.50011,-2.50011 v -25.4 c -2.3e-4,-1.38058 -1.11952,-2.49964 -2.50011,-2.49959 z"
         style="fill:#00ffff;fill-opacity:1;stroke:#000000;stroke-width:0.1;stroke-dasharray:none;stroke-opacity:1"
         id="path240" />
      <path
         d="m 455.02679,144.79574 c -1.38039,2.3e-4 -2.49937,1.11921 -2.49959,2.49959 v 25.4 c -6e-5,1.38059 1.119,2.49988 2.49959,2.50011 1.38079,6e-5 2.50016,-1.11931 2.5001,-2.50011 v -25.4 c -2.3e-4,-1.38058 -1.11952,-2.49964 -2.5001,-2.49959 z"
         style="fill:#00ffff;fill-opacity:1;stroke:#000000;stroke-width:0.1;stroke-dasharray:none;stroke-opacity:1"
         id="path241" />
      <path
         d="m 455.02679,226.79576 c -1.38039,2.3e-4 -2.49937,1.11921 -2.49959,2.49959 v 25.4 c -6e-5,1.38059 1.119,2.49988 2.49959,2.50011 1.38079,6e-5 2.50016,-1.11931 2.5001,-2.50011 v -25.4 c -2.3e-4,-1.38058 -1.11952,-2.49964 -2.5001,-2.49959 z"
         style="fill:#00ffff;fill-opacity:1;stroke:#000000;stroke-width:0.1;stroke-dasharray:none;stroke-opacity:1"
         id="path242" />
      <path
         d="m 401.05221,207.79574 c -1.38039,2.3e-4 -2.49937,1.11921 -2.49959,2.49959 v 25.4 c -6e-5,1.38059 1.119,2.49988 2.49959,2.50011 1.38079,6e-5 2.50016,-1.11931 2.5001,-2.50011 v -25.4 c -2.2e-4,-1.38058 -1.11952,-2.49964 -2.5001,-2.49959 z"
         style="fill:#00ffff;fill-opacity:1;stroke:#000000;stroke-width:0.1;stroke-dasharray:none;stroke-opacity:1"
         id="path243" />
      <circle
         style="fill:#1a1a1a;stroke:#000000;stroke-width:0.140236"
         id="circle243"
         cx="-455.02716"
         cy="123.19107"
         r="2.429882"
         transform="scale(-1,1)" />
      <circle
         style="fill:#1a1a1a;stroke:#000000;stroke-width:0.140236"
         id="circle244"
         cx="-401.05252"
         cy="72.605896"
         r="2.429882"
         transform="scale(-1,1)" />
      <path
         d="m 400.87151,12.046323 c -5.52271,5e-5 -9.99985,4.477184 -9.9999,9.999906 V 268.80946 c 6.2e-4,5.52049 4.47475,9.99624 9.99525,9.99887 l 0.009,-8e-5 58.01454,0.001 h 0.58291 c 3.6691,-0.13886 6.96339,-2.28751 8.56951,-5.58932 l 0.35913,-0.64234 120.6748,-215.705688 0.99375,-1.777147 c 0.42181,-1.083545 0.65041,-2.232659 0.6754,-3.395144 -3.3e-4,-0.517944 -0.0411,-1.035078 -0.12196,-1.546674 l -1.25367,-3.445271 -0.8816,-2.422072 -0.85317,-2.345592 c -1.72481,-3.290885 -5.13255,-5.354213 -8.84804,-5.357816 -1.11369,0.033 -2.21407,0.251809 -3.25562,0.647509 l -0.87767,0.318873 -136.45729,49.537619 -27.46189,-75.039864 z"
         style="fill:none;fill-opacity:0.346834;stroke:#000000;stroke-width:0.100441"
         id="path244" />
    </g>
  </g>
</svg>
